<svg xmlns="http://www.w3.org/2000/svg" version="1.1" xmlns:xlink="http://www.w3.org/1999/xlink" xmlns:svgjs="http://svgjs.dev/svgjs" width="1500" height="1500" viewBox="0 0 1500 1500"><rect width="1500" height="1500" fill="#000000"></rect><g transform="matrix(0.6666666666666666,0,0,0.6666666666666666,249.39393939393938,623.5639504414744)"><svg viewBox="0 0 396 100" data-background-color="#11F428" preserveAspectRatio="xMidYMid meet" height="378" width="1500" xmlns="http://www.w3.org/2000/svg" xmlns:xlink="http://www.w3.org/1999/xlink"><g id="tight-bounds" transform="matrix(1,0,0,1,0.2400000000000091,0.17303553909746938)"><svg viewBox="0 0 395.52 99.65392892180503" height="99.65392892180503" width="395.52"><g><svg viewBox="0 0 572.8700485816636 144.3384686053502" height="99.65392892180503" width="395.52"><g transform="matrix(1,0,0,1,177.3500485816636,19.948370118394998)"><svg viewBox="0 0 395.52 104.44172836856019" height="104.44172836856019" width="395.52"><g id="textblocktransform"><svg viewBox="0 0 395.52 104.44172836856019" height="104.44172836856019" width="395.52" id="textblock"><g><svg viewBox="0 0 395.52 75.22221463047725" height="75.22221463047725" width="395.52"><rect width="395.52" height="75.22221463047725" x="0" y="0" opacity="1" fill="#fff" data-fill-palette-color="tertiary"></rect><g transform="matrix(1,0,0,1,23.461705032,23.461705032000005)"><svg width="348.596589936" viewBox="2.05 -37.5 468.06 38" height="28.298804566477244" data-palette-color="#fff"><path d="M20-34.55L20-34.55Q12.25-34.55 12.25-19.6L12.25-19.6 12.25-15.65Q12.25-8.55 14.3-4.53 16.35-0.5 20.35-0.5L20.35-0.5Q25.85-0.5 30.45-11.2L30.45-11.2 31.35-11.2 31-0.05 30.45-0.05Q30.15-0.6 29.9-0.83 29.65-1.05 29.18-1.05 28.7-1.05 25.55-0.28 22.4 0.5 19.15 0.5L19.15 0.5Q11 0.5 6.53-3.9 2.05-8.3 2.05-17.13 2.05-25.95 6.73-30.75 11.4-35.55 19.3-35.55L19.3-35.55Q22.35-35.55 25.28-34.77 28.2-34 28.7-34 29.2-34 29.45-34.23 29.7-34.45 30-35L30-35 30.55-35 30.95-24.15 30.05-24.15Q27.8-29.2 25.43-31.88 23.05-34.55 20-34.55ZM50.65-9.85L50.65-9.85 50.65-14.1Q50.65-18.95 50.12-21.18 49.6-23.4 47.7-23.4L47.7-23.4Q46.6-23.4 45.92-22.78 45.25-22.15 44.95-20.7L44.95-20.7Q44.5-18.45 44.5-13.85L44.5-13.85 44.5-9.95Q44.5-4.5 44.82-3.4 45.15-2.3 45.5-1.6L45.5-1.6Q46.05-0.4 47.65-0.4L47.65-0.4Q49.6-0.4 50.2-2.65L50.2-2.65Q50.65-4.25 50.65-9.85ZM47.55 0.5Q41.3 0.5 38.1-2.7 34.9-5.9 34.9-11.88 34.9-17.85 38.32-21.08 41.75-24.3 47.95-24.3 54.15-24.3 57.2-21.33 60.25-18.35 60.25-12.25L60.25-12.25Q60.25 0.5 47.55 0.5L47.55 0.5ZM71.8-10.35Q71.8-5.1 72.35-3.38 72.9-1.65 74.37-1.65 75.85-1.65 76.92-2.95 78-4.25 78-6.8L78-6.8 78-17.7Q78-19.85 77.15-21.35 76.3-22.85 74.65-22.85 73-22.85 72.4-20.65 71.8-18.45 71.8-12.95L71.8-12.95 71.8-10.35ZM89.75 0L78.65 0 78.1-3.5Q76.4 0.5 71.2 0.5L71.2 0.5Q66.9 0.5 64.52-2.6 62.15-5.7 62.15-11.85L62.15-11.85Q62.15-24.3 72.05-24.3L72.05-24.3Q76.45-24.3 77.85-21.85L77.85-21.85 77.85-36.6 74.8-36.6 74.8-37.5 87.3-37.5 87.3-0.9 89.75-0.9 89.75 0ZM104.19 0.5Q97.74 0.5 94.52-2.83 91.29-6.15 91.29-12.08 91.29-18 94.92-21.15 98.54-24.3 104.14-24.3L104.14-24.3Q115.49-24.3 115.04-12.9L115.04-12.9 100.94-12.9 100.94-10.95Q100.94-6.05 102.19-3.55 103.44-1.05 106.54-1.05L106.54-1.05Q112.34-1.05 114.14-7.25L114.14-7.25 115.04-7.1Q114.09-3.5 111.62-1.5 109.14 0.5 104.19 0.5L104.19 0.5ZM100.99-16.35L100.99-13.9 106.14-13.9 106.14-16.35Q106.14-20.4 105.67-21.88 105.19-23.35 103.77-23.35 102.34-23.35 101.67-21.78 100.99-20.2 100.99-16.35L100.99-16.35ZM117.39-33.9L117.39-35 143.39-35 143.89-25.1 142.99-25.1Q140.89-30.15 138.59-32.02 136.29-33.9 131.84-33.9L131.84-33.9 130.09-33.9 130.09-18.45 131.79-18.45Q134.14-18.45 135.74-20.23 137.34-22 137.99-25L137.99-25 138.74-25 138.74-10.2 137.89-10.2Q136.99-13.95 135.47-15.55 133.94-17.15 131.29-17.15L131.29-17.15 130.09-17.15 130.09-1.1 131.99-1.1Q136.59-1.1 139.82-3.85 143.04-6.6 144.24-10.9L144.24-10.9 145.24-10.9 144.84 0 117.39 0 117.39-1.1 120.34-1.1 120.34-33.9 117.39-33.9ZM164.74-22.4L164.74-22.4Q162.89-22.4 161.49-20 160.09-17.6 160.09-14.3L160.09-14.3 160.09-0.9 163.64-0.9 163.64 0 148.04 0 148.04-0.9 150.79-0.9 150.79-22.9 148.04-22.9 148.04-23.8 160.09-23.8 160.09-19Q160.74-21.55 162.59-22.93 164.44-24.3 166.79-24.3 169.14-24.3 170.61-22.98 172.09-21.65 172.09-19.23 172.09-16.8 170.99-15.5 169.89-14.2 167.61-14.2 165.34-14.2 164.26-15.7 163.19-17.2 163.99-19.85L163.99-19.85 165.79-19.85Q167.04-22.4 164.74-22.4ZM184.04-11.75L184.04-11.75 185.49-11.75 185.49-15.6Q185.49-20.35 184.96-21.98 184.44-23.6 182.94-23.6L182.94-23.6Q182.04-23.6 181.31-23.13 180.59-22.65 180.59-21.83 180.59-21 180.89-20.15L180.89-20.15 182.14-20.15Q182.54-19.1 182.54-17.63 182.54-16.15 181.29-15.08 180.04-14 178.14-14L178.14-14Q173.84-14 173.84-18.15L173.84-18.15Q173.84-24.3 184.29-24.3L184.29-24.3Q190.24-24.3 192.51-22.28 194.79-20.25 194.79-14.85L194.79-14.85 194.79-4.7Q194.79-2.1 196.24-2.1L196.24-2.1Q197.94-2.1 198.24-7.25L198.24-7.25 198.99-7.2Q198.79-2.8 197.34-1.15 195.89 0.5 192.59 0.5L192.59 0.5Q186.59 0.5 185.69-3.2L185.69-3.2Q185.04-1.3 183.74-0.4 182.44 0.5 179.94 0.5L179.94 0.5Q172.54 0.5 172.54-5.55L172.54-5.55Q172.54-9.1 175.36-10.43 178.19-11.75 184.04-11.75ZM182.04-5.6Q182.04-3 182.31-2.25 182.59-1.5 183.36-1.5 184.14-1.5 184.81-2.78 185.49-4.05 185.49-6.3L185.49-6.3 185.49-10.95 185.14-10.95Q182.04-10.95 182.04-6.4L182.04-6.4 182.04-5.6ZM221.03-34.05L229.18-10.1 233.33-24.5 230.33-34.05 227.48-34.05 227.48-35 242.98-35 242.98-34.05 240.03-34.05 247.48-10.4 253.48-34.05 248.43-34.05 248.43-35 258.43-35 258.43-34.05 255.13-34.05 245.93 0.5 241.48 0.5 234.08-22.1 227.58 0.5 223.23 0.5 210.63-34.05 208.28-34.05 208.28-35 224.53-35 224.53-34.05 221.03-34.05ZM268.38 0.5Q261.93 0.5 258.7-2.83 255.48-6.15 255.48-12.08 255.48-18 259.1-21.15 262.73-24.3 268.33-24.3L268.33-24.3Q279.68-24.3 279.23-12.9L279.23-12.9 265.13-12.9 265.13-10.95Q265.13-6.05 266.38-3.55 267.63-1.05 270.73-1.05L270.73-1.05Q276.53-1.05 278.33-7.25L278.33-7.25 279.23-7.1Q278.28-3.5 275.8-1.5 273.33 0.5 268.38 0.5L268.38 0.5ZM265.18-16.35L265.18-13.9 270.33-13.9 270.33-16.35Q270.33-20.4 269.85-21.88 269.38-23.35 267.95-23.35 266.53-23.35 265.85-21.78 265.18-20.2 265.18-16.35L265.18-16.35ZM299.28-13.45Q299.28-18.6 298.78-20.38 298.28-22.15 296.83-22.15 295.38-22.15 294.23-20.35 293.08-18.55 293.08-15.4L293.08-15.4 293.08-6.1Q293.08-3.95 293.95-2.45 294.83-0.95 296.45-0.95 298.08-0.95 298.68-3.15 299.28-5.35 299.28-10.85L299.28-10.85 299.28-13.45ZM281.03-37.5L293.08-37.5 293.08-20Q294.98-24.3 299.58-24.3L299.58-24.3Q308.93-24.3 308.93-11.85L308.93-11.85Q308.93-5.5 306.35-2.5 303.78 0.5 298.63 0.5L298.63 0.5Q296.03 0.5 294.65-0.3 293.28-1.1 292.78-2.95L292.78-2.95 292.43 0 281.03 0 281.03-0.9 283.78-0.9 283.78-36.6 281.03-36.6 281.03-37.5ZM335.17-0.55L335.17-0.55Q337.67-0.55 339.6-1.9 341.52-3.25 341.52-5.98 341.52-8.7 339.44-10.15 337.37-11.6 333.55-12.68 329.72-13.75 328-14.55 326.27-15.35 324.72-16.65L324.72-16.65Q321.62-19.25 321.62-24.7L321.62-24.7Q321.62-29.15 324.8-32.35 327.97-35.55 333.47-35.55L333.47-35.55Q336.12-35.55 339-34.77 341.87-34 342.57-34 343.27-34 343.82-35L343.82-35 344.37-35 344.72-24.9 343.92-24.9Q341.52-29.25 338.9-31.88 336.27-34.5 333.19-34.5 330.12-34.5 328.42-33.08 326.72-31.65 326.72-29.28 326.72-26.9 328.75-25.63 330.77-24.35 333.72-23.55 336.67-22.75 337.6-22.45 338.52-22.15 339.9-21.63 341.27-21.1 342.15-20.53 343.02-19.95 344-19.07 344.97-18.2 345.52-17.15L345.52-17.15Q346.87-14.75 346.87-11.45L346.87-11.45Q346.87-6.05 343.5-2.78 340.12 0.5 334.62 0.5L334.62 0.5Q331.77 0.5 328.1-0.25 324.42-1 324.02-1L324.02-1Q323.32-1 322.67 0.5L322.67 0.5 321.97 0.5 321.47-11.4 322.32-11.4Q324.52-7.05 327.94-3.8 331.37-0.55 335.17-0.55ZM351.92-7.15L351.92-7.15 351.92-22.9 349.17-22.9 349.17-23.8 351.92-23.8 351.92-30.25 361.22-32.55 361.22-23.8 367.72-23.8 367.72-22.9 361.22-22.9 361.22-6.05Q361.22-3.7 361.69-2.6 362.17-1.5 363.67-1.5 365.17-1.5 366.29-3 367.42-4.5 367.77-7.1L367.77-7.1 368.62-7Q368.22-3.55 366.42-1.53 364.62 0.5 360.47 0.5 356.32 0.5 354.12-1.15 351.92-2.8 351.92-7.15ZM398.12-0.9L398.12 0 386.72 0 386.17-3.65Q385.37-1.65 383.79-0.58 382.22 0.5 379.12 0.5L379.12 0.5Q371.37 0.5 371.37-7.85L371.37-7.85 371.37-22.9 368.56-22.9 368.56-23.8 380.67-23.8 380.67-6.65Q380.67-3.65 381.09-2.7 381.51-1.75 382.79-1.75 384.06-1.75 385.06-3.3 386.06-4.85 386.06-7.6L386.06-7.6 386.06-22.9 383.76-22.9 383.76-23.8 395.37-23.8 395.37-0.9 398.12-0.9ZM409.26-10.35Q409.26-5.1 409.81-3.38 410.36-1.65 411.84-1.65 413.31-1.65 414.39-2.95 415.46-4.25 415.46-6.8L415.46-6.8 415.46-17.7Q415.46-19.85 414.61-21.35 413.76-22.85 412.11-22.85 410.46-22.85 409.86-20.65 409.26-18.45 409.26-12.95L409.26-12.95 409.26-10.35ZM427.21 0L416.11 0 415.56-3.5Q413.86 0.5 408.66 0.5L408.66 0.5Q404.36 0.5 401.99-2.6 399.61-5.7 399.61-11.85L399.61-11.85Q399.61-24.3 409.51-24.3L409.51-24.3Q413.91-24.3 415.31-21.85L415.31-21.85 415.31-36.6 412.26-36.6 412.26-37.5 424.76-37.5 424.76-0.9 427.21-0.9 427.21 0ZM435.86-27.25Q433.21-27.25 432.08-28.6 430.96-29.95 430.96-31.95 430.96-33.95 432.19-35.25 433.41-36.55 435.91-36.55 438.41-36.55 439.71-35.38 441.01-34.2 441.01-32.02 441.01-29.85 439.76-28.55 438.51-27.25 435.86-27.25ZM428.31-22.9L428.31-23.8 440.56-23.8 440.56-0.9 443.36-0.9 443.36 0 428.51 0 428.51-0.9 431.26-0.9 431.26-22.9 428.31-22.9ZM460.51-9.85L460.51-9.85 460.51-14.1Q460.51-18.95 459.98-21.18 459.46-23.4 457.56-23.4L457.56-23.4Q456.46-23.4 455.78-22.78 455.11-22.15 454.81-20.7L454.81-20.7Q454.36-18.45 454.36-13.85L454.36-13.85 454.36-9.95Q454.36-4.5 454.68-3.4 455.01-2.3 455.36-1.6L455.36-1.6Q455.91-0.4 457.51-0.4L457.51-0.4Q459.46-0.4 460.06-2.65L460.06-2.65Q460.51-4.25 460.51-9.85ZM457.41 0.5Q451.16 0.5 447.96-2.7 444.76-5.9 444.76-11.88 444.76-17.85 448.18-21.08 451.61-24.3 457.81-24.3 464.01-24.3 467.06-21.33 470.11-18.35 470.11-12.25L470.11-12.25Q470.11 0.5 457.41 0.5L457.41 0.5Z" opacity="1" transform="matrix(1,0,0,1,0,0)" fill="#000000" class="wordmark-text-0" data-fill-palette-color="quaternary" id="text-0"></path></svg></g></svg></g><g transform="matrix(1,0,0,1,0,86.95306714647725)"><svg viewBox="0 0 395.52 17.488661222082936" height="17.488661222082936" width="395.52"><g transform="matrix(1,0,0,1,0,0)"><svg width="395.52" viewBox="1.6 -35.7 975.87 43.150000000000006" height="17.488661222082936" data-palette-color="#111111"><path d="M17.6 0L14 0 14-14.8 1.6-35 5.4-35 16.55-16.7 16.85-16.7 25.75-35 29.55-35 17.6-15.5 17.6 0ZM49.98-17.5L49.98-17.5Q49.98-21.35 51.36-24.68 52.73-28 55.21-30.48 57.68-32.95 61.01-34.33 64.33-35.7 68.18-35.7L68.18-35.7Q72.03-35.7 75.36-34.33 78.68-32.95 81.16-30.48 83.63-28 85.01-24.68 86.38-21.35 86.38-17.5L86.38-17.5Q86.38-13.65 85.01-10.33 83.63-7 81.16-4.53 78.68-2.05 75.36-0.68 72.03 0.7 68.18 0.7L68.18 0.7Q64.33 0.7 61.01-0.68 57.68-2.05 55.21-4.53 52.73-7 51.36-10.33 49.98-13.65 49.98-17.5ZM53.78-17.5L53.78-17.5Q53.78-12.4 55.58-8.58 57.38-4.75 60.63-2.63 63.88-0.5 68.18-0.5L68.18-0.5Q72.48-0.5 75.73-2.63 78.98-4.75 80.78-8.6 82.58-12.45 82.58-17.5L82.58-17.5Q82.58-22.55 80.78-26.38 78.98-30.2 75.73-32.35 72.48-34.5 68.18-34.5L68.18-34.5Q63.88-34.5 60.66-32.38 57.43-30.25 55.61-26.43 53.78-22.6 53.78-17.5ZM113.22-14L113.22-35 116.62-35 116.62-13.9Q116.62-7.85 119.59-4.48 122.57-1.1 127.97-1.1L127.97-1.1Q131.37-1.1 133.89-2.43 136.42-3.75 137.79-6.1 139.17-8.45 139.07-11.5L139.07-11.5 138.22-35 141.62-35 140.77-11.5Q140.57-5.5 137.19-2.4 133.82 0.7 127.57 0.7L127.57 0.7Q120.82 0.7 117.02-3.23 113.22-7.15 113.22-14L113.22-14ZM170.45 0L170.45-35 177.15-35Q182.45-35 185.38-32.77 188.3-30.55 188.3-26.55L188.3-26.55Q188.3-23.45 186.48-21.4 184.65-19.35 181.2-18.65L181.2-18.65 181.2-18.35Q184.5-17.7 186.6-15.25 188.7-12.8 189.75-9.2L189.75-9.2Q190.7-5.9 191.63-4.08 192.55-2.25 193.68-1.45 194.8-0.65 196.35-0.3L196.35-0.3 196.35 0 194.3 0Q192.1 0 190.68-0.8 189.25-1.6 188.25-3.5 187.25-5.4 186.35-8.75L186.35-8.75Q184.9-13.9 182.5-16.05 180.1-18.2 176.65-18.2L176.65-18.2 176.35-18.2 176.35-19.1 176.65-19.1Q184.7-19.1 184.7-26.5L184.7-26.5Q184.7-33.8 177.15-33.8L177.15-33.8 173.85-33.8 173.85 0 170.45 0ZM260.72 0.7L244.82-35 248.57-35 262.22-3.9 262.52-3.9 273.97-35 277.72-35 261.82 0.7 260.72 0.7ZM305.75 0L302.35 0 302.35-35 305.75-35 305.75 0ZM332.54-1.1L332.54-1.1 332.84-4.1 333.14-4.1Q335.09-2.4 337.54-1.45 339.99-0.5 342.39-0.5L342.39-0.5Q345.79-0.5 347.89-2.38 349.99-4.25 349.99-7.4L349.99-7.4Q349.99-9.15 349.21-10.65 348.44-12.15 346.66-13.7 344.89-15.25 341.79-17.05L341.79-17.05Q339.64-18.3 337.69-19.68 335.74-21.05 334.49-22.88 333.24-24.7 333.24-27.25L333.24-27.25Q333.24-31.05 335.99-33.38 338.74-35.7 343.24-35.7L343.24-35.7Q345.24-35.7 347.54-35.27 349.84-34.85 351.09-34.2L351.09-34.2 350.84-31.4 350.54-31.4Q347.69-34.5 343.24-34.5L343.24-34.5Q340.04-34.5 338.09-32.88 336.14-31.25 336.14-28.5L336.14-28.5Q336.14-26.45 337.21-24.98 338.29-23.5 339.99-22.33 341.69-21.15 343.64-20.05L343.64-20.05Q345.89-18.75 348.01-17.3 350.14-15.85 351.51-13.83 352.89-11.8 352.89-8.75L352.89-8.75Q352.89-5.95 351.59-3.83 350.29-1.7 347.91-0.5 345.54 0.7 342.39 0.7L342.39 0.7Q340.39 0.7 337.69 0.2 334.99-0.3 332.54-1.1ZM382.97 0L379.57 0 379.57-35 382.97-35 382.97 0ZM410.3-17.5L410.3-17.5Q410.3-21.35 411.68-24.68 413.05-28 415.53-30.48 418-32.95 421.33-34.33 424.65-35.7 428.5-35.7L428.5-35.7Q432.35-35.7 435.68-34.33 439-32.95 441.48-30.48 443.95-28 445.33-24.68 446.7-21.35 446.7-17.5L446.7-17.5Q446.7-13.65 445.33-10.33 443.95-7 441.48-4.53 439-2.05 435.68-0.68 432.35 0.7 428.5 0.7L428.5 0.7Q424.65 0.7 421.33-0.68 418-2.05 415.53-4.53 413.05-7 411.68-10.33 410.3-13.65 410.3-17.5ZM414.1-17.5L414.1-17.5Q414.1-12.4 415.9-8.58 417.7-4.75 420.95-2.63 424.2-0.5 428.5-0.5L428.5-0.5Q432.8-0.5 436.05-2.63 439.3-4.75 441.1-8.6 442.9-12.45 442.9-17.5L442.9-17.5Q442.9-22.55 441.1-26.38 439.3-30.2 436.05-32.35 432.8-34.5 428.5-34.5L428.5-34.5Q424.2-34.5 420.98-32.38 417.75-30.25 415.93-26.43 414.1-22.6 414.1-17.5ZM476.69 0L473.29 0 474.54-35.7 475.14-35.7 500.29-5.3 500.59-5.3 499.49-35 502.89-35 501.64 0.7 501.04 0.7 475.89-29.7 475.59-29.7 476.69 0ZM529.22-2.1L529.22-2.1Q529.22-3.25 529.97-3.98 530.72-4.7 531.92-4.7L531.92-4.7Q533.32-4.7 534.04-3.68 534.77-2.65 534.77-0.75L534.77-0.75Q534.77 1.7 533.54 3.83 532.32 5.95 530.12 7.45L530.12 7.45 529.62 6.7Q533.07 4.1 533.27-0.6L533.27-0.6Q532.67 0.35 531.52 0.35L531.52 0.35Q530.47 0.35 529.84-0.35 529.22-1.05 529.22-2.1ZM589.84-17.5L589.84-17.5Q589.84-21.35 591.21-24.68 592.59-28 595.06-30.48 597.54-32.95 600.86-34.33 604.19-35.7 608.04-35.7L608.04-35.7Q611.89-35.7 615.21-34.33 618.54-32.95 621.01-30.48 623.49-28 624.86-24.68 626.24-21.35 626.24-17.5L626.24-17.5Q626.24-13.65 624.86-10.33 623.49-7 621.01-4.53 618.54-2.05 615.21-0.68 611.89 0.7 608.04 0.7L608.04 0.7Q604.19 0.7 600.86-0.68 597.54-2.05 595.06-4.53 592.59-7 591.21-10.33 589.84-13.65 589.84-17.5ZM593.64-17.5L593.64-17.5Q593.64-12.4 595.44-8.58 597.24-4.75 600.49-2.63 603.74-0.5 608.04-0.5L608.04-0.5Q612.34-0.5 615.59-2.63 618.84-4.75 620.64-8.6 622.44-12.45 622.44-17.5L622.44-17.5Q622.44-22.55 620.64-26.38 618.84-30.2 615.59-32.35 612.34-34.5 608.04-34.5L608.04-34.5Q603.74-34.5 600.51-32.38 597.29-30.25 595.46-26.43 593.64-22.6 593.64-17.5ZM653.07-14L653.07-35 656.47-35 656.47-13.9Q656.47-7.85 659.45-4.48 662.42-1.1 667.82-1.1L667.82-1.1Q671.22-1.1 673.75-2.43 676.27-3.75 677.65-6.1 679.02-8.45 678.92-11.5L678.92-11.5 678.07-35 681.47-35 680.62-11.5Q680.42-5.5 677.05-2.4 673.67 0.7 667.42 0.7L667.42 0.7Q660.67 0.7 656.87-3.23 653.07-7.15 653.07-14L653.07-14ZM710.3 0L710.3-35 717-35Q722.3-35 725.23-32.77 728.15-30.55 728.15-26.55L728.15-26.55Q728.15-23.45 726.33-21.4 724.5-19.35 721.05-18.65L721.05-18.65 721.05-18.35Q724.35-17.7 726.45-15.25 728.55-12.8 729.6-9.2L729.6-9.2Q730.55-5.9 731.48-4.08 732.4-2.25 733.53-1.45 734.65-0.65 736.2-0.3L736.2-0.3 736.2 0 734.15 0Q731.95 0 730.53-0.8 729.1-1.6 728.1-3.5 727.1-5.4 726.2-8.75L726.2-8.75Q724.75-13.9 722.35-16.05 719.95-18.2 716.5-18.2L716.5-18.2 716.2-18.2 716.2-19.1 716.5-19.1Q724.55-19.1 724.55-26.5L724.55-26.5Q724.55-33.8 717-33.8L717-33.8 713.7-33.8 713.7 0 710.3 0ZM817.17-4.3L817.47-4.3 817.17-1.25Q815.77-0.65 813.77-0.2 811.77 0.25 809.72 0.48 807.67 0.7 806.07 0.7L806.07 0.7Q802.02 0.7 798.57-0.68 795.12-2.05 792.55-4.5 789.97-6.95 788.52-10.28 787.07-13.6 787.07-17.5L787.07-17.5Q787.07-21.4 788.52-24.73 789.97-28.05 792.55-30.5 795.12-32.95 798.57-34.33 802.02-35.7 806.07-35.7L806.07-35.7Q807.72-35.7 809.77-35.45 811.82-35.2 813.77-34.77 815.72-34.35 817.07-33.8L817.07-33.8 816.82-31 816.52-31Q814.67-32.7 811.87-33.6 809.07-34.5 806.07-34.5L806.07-34.5Q801.57-34.5 798.15-32.38 794.72-30.25 792.8-26.43 790.87-22.6 790.87-17.5L790.87-17.5Q790.87-12.35 792.8-8.55 794.72-4.75 798.12-2.63 801.52-0.5 806.07-0.5L806.07-0.5Q809.47-0.5 812.4-1.6 815.32-2.7 817.17-4.3L817.17-4.3ZM840.8-17.5L840.8-17.5Q840.8-21.35 842.18-24.68 843.55-28 846.03-30.48 848.5-32.95 851.83-34.33 855.15-35.7 859-35.7L859-35.7Q862.85-35.7 866.18-34.33 869.5-32.95 871.98-30.48 874.45-28 875.83-24.68 877.2-21.35 877.2-17.5L877.2-17.5Q877.2-13.65 875.83-10.33 874.45-7 871.98-4.53 869.5-2.05 866.18-0.68 862.85 0.7 859 0.7L859 0.7Q855.15 0.7 851.83-0.68 848.5-2.05 846.03-4.53 843.55-7 842.18-10.33 840.8-13.65 840.8-17.5ZM844.6-17.5L844.6-17.5Q844.6-12.4 846.4-8.58 848.2-4.75 851.45-2.63 854.7-0.5 859-0.5L859-0.5Q863.3-0.5 866.55-2.63 869.8-4.75 871.6-8.6 873.4-12.45 873.4-17.5L873.4-17.5Q873.4-22.55 871.6-26.38 869.8-30.2 866.55-32.35 863.3-34.5 859-34.5L859-34.5Q854.7-34.5 851.48-32.38 848.25-30.25 846.43-26.43 844.6-22.6 844.6-17.5ZM915.54 0L904.54 0 904.54-35 915.54-35Q921.34-35 925.64-32.8 929.94-30.6 932.34-26.68 934.74-22.75 934.74-17.5L934.74-17.5Q934.74-12.25 932.34-8.33 929.94-4.4 925.64-2.2 921.34 0 915.54 0L915.54 0ZM915.54-33.8L915.54-33.8 907.94-33.8 907.94-1.2 915.54-1.2Q922.79-1.2 926.86-5.5 930.94-9.8 930.94-17.5L930.94-17.5Q930.94-25.2 926.86-29.5 922.79-33.8 915.54-33.8ZM977.47 0L962.07 0 962.07-35 977.32-35 977.32-32.55 968.57-33.7Q966.27-34 965.47-34L965.47-34 965.47-18.75Q966.12-18.75 968.57-18.9L968.57-18.9 976.77-19.4 976.77-17.1 968.57-17.6Q966.12-17.75 965.47-17.75L965.47-17.75 965.47-1Q966.37-1 968.62-1.3L968.62-1.3 977.47-2.45 977.47 0Z" opacity="1" transform="matrix(1,0,0,1,0,0)" fill="#fff" class="slogan-text-1" data-fill-palette-color="secondary" id="text-1"></path></svg></g></svg></g></svg></g></svg></g><g><svg viewBox="0 0 165.6191960656636 144.3384686053502" height="144.3384686053502" width="165.6191960656636"><g><svg xmlns="http://www.w3.org/2000/svg" xmlns:xlink="http://www.w3.org/1999/xlink" version="1.0" x="0" y="0" viewBox="1.118 4.1185758 47.921 41.76353899999999" enable-background="new 0 0 50 50" xml:space="preserve" height="144.3384686053502" width="165.6191960656636" class="icon-icon-0" data-fill-palette-color="accent" id="icon-0"><g fill="#ff4136" data-fill-palette-color="accent"><g fill="#ff4136" data-fill-palette-color="accent"><polygon fill="#11F428" points="10.821,24.951 21,32.193 21,39.035 1.118,24.891 21,11.118 21,17.9   " data-fill-palette-color="accent"></polygon></g><g fill="#ff4136" data-fill-palette-color="accent"><polygon fill="#11F428" points="49.039,25.277 35.815,16.063 34.219,21.712 39.475,25.338 31.411,30.97 29,38.79 29,39.424   " data-fill-palette-color="accent"></polygon></g><rect x="25.577" y="3.983" transform="matrix(0.9606 0.278 -0.278 0.9606 8.0575 -6.8179)" fill="#11F428" width="4.981" height="42.035" data-fill-palette-color="accent"></rect></g></svg></g></svg></g></svg></g><defs></defs></svg><rect width="395.52" height="99.65392892180503" fill="none" stroke="none" visibility="hidden"></rect></g></svg></g></svg>